<mxfile host="app.diagrams.net" modified="2021-02-21T13:55:44.922Z" agent="5.0 (Macintosh; Intel Mac OS X 10_15_7) AppleWebKit/537.36 (KHTML, like Gecko) Chrome/88.0.4324.182 Safari/537.36" etag="YP9KsYi2Qoa7nWUGx85L" version="14.3.1" type="github">
  <diagram id="gkyQEmJ9N90zr5tlYp9-" name="Page-1">
    <mxGraphModel dx="1307" dy="1185" grid="1" gridSize="10" guides="1" tooltips="1" connect="1" arrows="1" fold="1" page="1" pageScale="1" pageWidth="850" pageHeight="1100" math="0" shadow="0">
      <root>
        <mxCell id="0" />
        <mxCell id="1" parent="0" />
        <mxCell id="Ty_LLk3me88ALmOE0akq-2" value="" style="shape=actor;whiteSpace=wrap;html=1;" vertex="1" parent="1">
          <mxGeometry x="60" y="80" width="150" height="240" as="geometry" />
        </mxCell>
        <mxCell id="Ty_LLk3me88ALmOE0akq-3" value="client" style="rounded=0;whiteSpace=wrap;html=1;strokeColor=#000000;" vertex="1" parent="1">
          <mxGeometry x="95" y="240" width="80" height="50" as="geometry" />
        </mxCell>
        <mxCell id="Ty_LLk3me88ALmOE0akq-4" value="" style="shape=datastore;whiteSpace=wrap;html=1;strokeColor=#000000;" vertex="1" parent="1">
          <mxGeometry x="660" y="70" width="160" height="260" as="geometry" />
        </mxCell>
        <mxCell id="Ty_LLk3me88ALmOE0akq-5" value="sever" style="rounded=0;whiteSpace=wrap;html=1;strokeColor=#000000;" vertex="1" parent="1">
          <mxGeometry x="680" y="220" width="120" height="60" as="geometry" />
        </mxCell>
        <mxCell id="Ty_LLk3me88ALmOE0akq-6" value="" style="shape=singleArrow;whiteSpace=wrap;html=1;strokeColor=#000000;rotation=0;" vertex="1" parent="1">
          <mxGeometry x="219.49" y="180" width="430.51" height="30" as="geometry" />
        </mxCell>
        <mxCell id="Ty_LLk3me88ALmOE0akq-7" value="SYN = 1, seq = randomNumber1" style="text;html=1;align=center;verticalAlign=middle;resizable=0;points=[];autosize=1;rotation=0;" vertex="1" parent="1">
          <mxGeometry x="330" y="160" width="190" height="20" as="geometry" />
        </mxCell>
        <mxCell id="Ty_LLk3me88ALmOE0akq-8" value="" style="shape=singleArrow;direction=west;whiteSpace=wrap;html=1;strokeColor=#000000;arrowWidth=0.3;arrowSize=0.15333333333333332;" vertex="1" parent="1">
          <mxGeometry x="219.49" y="240" width="430.51" height="20" as="geometry" />
        </mxCell>
        <mxCell id="Ty_LLk3me88ALmOE0akq-9" value="SYN = 1, seq = randomNumber2, ACK = 1, ack = randomNumber 1+ 1" style="text;html=1;align=center;verticalAlign=middle;resizable=0;points=[];autosize=1;" vertex="1" parent="1">
          <mxGeometry x="255" y="220" width="390" height="20" as="geometry" />
        </mxCell>
        <mxCell id="Ty_LLk3me88ALmOE0akq-10" value="" style="shape=singleArrow;whiteSpace=wrap;html=1;strokeColor=#000000;rotation=0;" vertex="1" parent="1">
          <mxGeometry x="219.49" y="280" width="430.51" height="30" as="geometry" />
        </mxCell>
        <mxCell id="Ty_LLk3me88ALmOE0akq-12" value="3-way-handshake" style="rounded=1;whiteSpace=wrap;html=1;strokeColor=#000000;" vertex="1" parent="1">
          <mxGeometry x="280" y="20" width="260" height="40" as="geometry" />
        </mxCell>
        <mxCell id="Ty_LLk3me88ALmOE0akq-13" value="ACK = 1, ack = randomNumber2+1" style="text;html=1;align=center;verticalAlign=middle;resizable=0;points=[];autosize=1;rotation=0;" vertex="1" parent="1">
          <mxGeometry x="310" y="270" width="200" height="20" as="geometry" />
        </mxCell>
        <mxCell id="Ty_LLk3me88ALmOE0akq-36" value="" style="shape=actor;whiteSpace=wrap;html=1;" vertex="1" parent="1">
          <mxGeometry x="45" y="580" width="150" height="240" as="geometry" />
        </mxCell>
        <mxCell id="Ty_LLk3me88ALmOE0akq-37" value="client" style="rounded=0;whiteSpace=wrap;html=1;strokeColor=#000000;" vertex="1" parent="1">
          <mxGeometry x="80" y="740" width="80" height="50" as="geometry" />
        </mxCell>
        <mxCell id="Ty_LLk3me88ALmOE0akq-38" value="" style="shape=datastore;whiteSpace=wrap;html=1;strokeColor=#000000;" vertex="1" parent="1">
          <mxGeometry x="645" y="570" width="160" height="260" as="geometry" />
        </mxCell>
        <mxCell id="Ty_LLk3me88ALmOE0akq-39" value="sever" style="rounded=0;whiteSpace=wrap;html=1;strokeColor=#000000;" vertex="1" parent="1">
          <mxGeometry x="665" y="720" width="120" height="60" as="geometry" />
        </mxCell>
        <mxCell id="Ty_LLk3me88ALmOE0akq-40" value="" style="shape=singleArrow;whiteSpace=wrap;html=1;strokeColor=#000000;rotation=0;" vertex="1" parent="1">
          <mxGeometry x="210" y="630" width="430.51" height="30" as="geometry" />
        </mxCell>
        <mxCell id="Ty_LLk3me88ALmOE0akq-41" value="FIN = 1, seq = randomNumber1" style="text;html=1;align=center;verticalAlign=middle;resizable=0;points=[];autosize=1;rotation=0;" vertex="1" parent="1">
          <mxGeometry x="320" y="620" width="180" height="20" as="geometry" />
        </mxCell>
        <mxCell id="Ty_LLk3me88ALmOE0akq-42" value="" style="shape=singleArrow;direction=west;whiteSpace=wrap;html=1;strokeColor=#000000;arrowWidth=0.3;arrowSize=0.15333333333333332;" vertex="1" parent="1">
          <mxGeometry x="204.49" y="740" width="430.51" height="20" as="geometry" />
        </mxCell>
        <mxCell id="Ty_LLk3me88ALmOE0akq-43" value="FIN = 1, seq = randomNumber2" style="text;html=1;align=center;verticalAlign=middle;resizable=0;points=[];autosize=1;" vertex="1" parent="1">
          <mxGeometry x="345" y="720" width="180" height="20" as="geometry" />
        </mxCell>
        <mxCell id="Ty_LLk3me88ALmOE0akq-44" value="" style="shape=singleArrow;whiteSpace=wrap;html=1;strokeColor=#000000;rotation=0;" vertex="1" parent="1">
          <mxGeometry x="204.49" y="780" width="430.51" height="30" as="geometry" />
        </mxCell>
        <mxCell id="Ty_LLk3me88ALmOE0akq-45" value="4-way-handshake" style="rounded=1;whiteSpace=wrap;html=1;strokeColor=#000000;" vertex="1" parent="1">
          <mxGeometry x="265" y="520" width="260" height="40" as="geometry" />
        </mxCell>
        <mxCell id="Ty_LLk3me88ALmOE0akq-46" value="ACK = 1, ack = randomNumber2+1" style="text;html=1;align=center;verticalAlign=middle;resizable=0;points=[];autosize=1;rotation=0;" vertex="1" parent="1">
          <mxGeometry x="295" y="770" width="200" height="20" as="geometry" />
        </mxCell>
        <mxCell id="Ty_LLk3me88ALmOE0akq-47" value="" style="shape=singleArrow;direction=west;whiteSpace=wrap;html=1;strokeColor=#000000;arrowWidth=0.3;arrowSize=0.15333333333333332;" vertex="1" parent="1">
          <mxGeometry x="204.49" y="690" width="430.51" height="20" as="geometry" />
        </mxCell>
        <mxCell id="Ty_LLk3me88ALmOE0akq-48" value="ACK = 1, ack = randomNumber1" style="text;html=1;align=center;verticalAlign=middle;resizable=0;points=[];autosize=1;rotation=0;" vertex="1" parent="1">
          <mxGeometry x="310" y="680" width="190" height="20" as="geometry" />
        </mxCell>
      </root>
    </mxGraphModel>
  </diagram>
</mxfile>
